<svg xmlns="http://www.w3.org/2000/svg" id="Layer_2" data-name="Layer 2" viewBox="0 0 181.12 160.66"><defs><style>      .cls-1 {        fill-rule: evenodd;      }      .cls-1, .cls-2, .cls-3 {        fill: #fff;      }      .cls-2 {        font-size: 34.88px;      }      .cls-2, .cls-3 {        font-family: TimesNewRomanPS-BoldMT, 'Times New Roman';        font-weight: 700;      }      .cls-3 {        font-size: 19.02px;      }    </style></defs><g id="Layer_1-2" data-name="Layer 1"><g><path class="cls-1" d="M4.53,94.08c2.3,5.42,5.38,9.79,8.93,13.53h0c19.85-5.24,29.21-7.28,51.42-25.59v-19.31c-16,18.25-35.76,29.39-60.36,31.37Z"></path><path class="cls-1" d="M19.9,113.43c4.73,3.74,9.9,6.94,15.04,10.31,10.45-2.87,20.43-6.98,29.96-12.3v-18.78c-18.06,12.46-21.38,13.53-45,20.77Z"></path><path class="cls-1" d="M54.28,139.72c4.08-.72,7.61-2.13,10.62-4.23v-15.42c-6.3,4.22-13.56,7.32-21.7,9.39,3.95,2.97,7.72,6.27,11.08,10.26Z"></path><path class="cls-1" d="M64.9,159.72v-15.66c-1.61,1.35-3.55,2.13-5.78,2.41,2.3,3.81,4.26,8.17,5.78,13.25Z"></path><path class="cls-1" d="M65.36,0C54.59,42.59,32.63,70.49,0,68.58c0,7.24.78,13.37,2.18,18.65,23.63-.64,44.35-13.61,62.72-36.6,15.98,24,37.37,34.2,63.06,36.83v-19.8c-33.79-1.3-54.74-29.38-62.6-67.66Z"></path><text class="cls-2" transform="translate(72.41 115.14)"><tspan x="0" y="0">TEJAS</tspan></text><text class="cls-3" transform="translate(77.59 134.98)"><tspan x="0" y="0">MARITIME</tspan></text><text class="cls-3" transform="translate(77.38 154.83)"><tspan x="0" y="0">PVT.LTD.</tspan></text></g></g></svg>