<svg xmlns="http://www.w3.org/2000/svg" width="169" height="149" viewBox="0 0 169 149" fill="none"><path fill-rule="evenodd" clip-rule="evenodd" d="M60.5135 148.925C47.6369 105.791 0 118.453 0 63.9447C30.4339 65.7256 50.9003 39.7021 60.9424 0C68.2711 35.6927 87.8051 61.8748 119.311 63.0869V81.5393C95.3577 79.0871 75.4134 69.5765 60.5135 47.208V148.925Z" fill="#180F5E"></path><path fill-rule="evenodd" clip-rule="evenodd" d="M4.21455 87.7213C3.35673 85.6327 2.60148 83.5162 2.03271 81.325C24.0749 80.7283 43.3945 68.6349 60.5135 47.1987V58.4529C45.5856 75.4694 27.1519 85.8565 4.21455 87.712" fill="#ED1C24"></path><path fill-rule="evenodd" clip-rule="evenodd" d="M18.5456 105.763C16.3451 104.02 14.3218 102.22 12.5595 100.327C31.0772 95.4416 39.8046 93.5395 60.5134 76.4764V86.3879C43.6741 98.0057 40.5878 99.0034 18.5549 105.763" fill="#ED1C24"></path><path fill-rule="evenodd" clip-rule="evenodd" d="M40.2894 120.71L32.5784 115.367C42.3221 112.691 51.6275 108.859 60.5134 103.898V111.945C54.6392 115.88 47.8699 118.77 40.2801 120.71" fill="#ED1C24"></path><path fill-rule="evenodd" clip-rule="evenodd" d="M55.1242 136.57C53.6882 134.267 52.2523 132.179 50.6113 130.276C54.4155 129.605 57.7163 128.29 60.5228 126.332V134.323C59.0216 135.582 57.2034 136.3 55.1242 136.561" fill="#ED1C24"></path><path d="M88.033 83.139V88.967H87.4613C87.1226 87.6225 86.7467 86.6591 86.3338 86.0768C85.921 85.484 85.3546 85.0129 84.6347 84.6635C84.2324 84.4729 83.5284 84.3777 82.5226 84.3777H80.9187V100.988C80.9187 102.089 80.977 102.777 81.0934 103.053C81.2205 103.328 81.4587 103.571 81.808 103.783C82.168 103.984 82.655 104.085 83.269 104.085H83.9836V104.672H72.7087V104.085H73.4233C74.0479 104.085 74.5508 103.974 74.9319 103.751C75.2072 103.603 75.4242 103.349 75.583 102.989C75.6995 102.735 75.7577 102.068 75.7577 100.988V84.3777H74.2014C72.7511 84.3777 71.6977 84.6847 71.0413 85.2987C70.1202 86.1562 69.538 87.379 69.2945 88.967H68.691V83.139H88.033Z" fill="#180F5E"></path><path d="M98.0693 84.3777V93.1435H98.498C99.8637 93.1435 100.854 92.7147 101.468 91.8572C102.082 90.9997 102.473 89.7346 102.643 88.0618H103.246V99.3367H102.643C102.516 98.1087 102.246 97.1029 101.833 96.3195C101.431 95.5361 100.959 95.012 100.42 94.7474C99.8796 94.4721 99.0962 94.3345 98.0693 94.3345V100.401C98.0693 101.586 98.1169 102.312 98.2122 102.576C98.3181 102.841 98.5086 103.058 98.7839 103.227C99.0591 103.397 99.5038 103.481 100.118 103.481H101.404C103.416 103.481 105.025 103.016 106.232 102.084C107.449 101.152 108.323 99.7337 108.852 97.8281H109.439L108.471 104.672H89.8592V104.085H90.5738C91.1985 104.085 91.7013 103.974 92.0825 103.751C92.3577 103.603 92.5694 103.349 92.7177 102.989C92.8341 102.735 92.8923 102.068 92.8923 100.988V86.8232C92.8923 85.8492 92.8659 85.2511 92.8129 85.0287C92.7071 84.6582 92.5112 84.3724 92.2254 84.1712C91.8231 83.8748 91.2726 83.7266 90.5738 83.7266H89.8592V83.139H107.883V89.5069H107.28C106.973 87.9507 106.539 86.8338 105.978 86.1562C105.427 85.4787 104.644 84.9811 103.627 84.6635C103.034 84.4729 101.923 84.3777 100.292 84.3777H98.0693Z" fill="#180F5E"></path><path d="M115.522 83.7266V83.139H126.971V83.7266H126.272C125.637 83.7266 125.129 83.8377 124.748 84.0601C124.483 84.2083 124.271 84.4624 124.113 84.8223C123.996 85.0764 123.938 85.7433 123.938 86.8232V97.3676C123.938 99.432 123.732 100.935 123.319 101.878C122.906 102.809 122.17 103.593 121.111 104.228C120.063 104.852 118.798 105.165 117.316 105.165C115.506 105.165 114.039 104.688 112.917 103.736C111.806 102.783 111.25 101.729 111.25 100.575C111.25 99.8343 111.477 99.2362 111.933 98.7809C112.388 98.3151 112.944 98.0822 113.6 98.0822C114.246 98.0822 114.786 98.2886 115.22 98.7015C115.664 99.1144 115.887 99.6226 115.887 100.226C115.887 100.522 115.85 100.782 115.776 101.004C115.733 101.11 115.564 101.38 115.267 101.814C114.982 102.238 114.839 102.539 114.839 102.719C114.839 102.994 114.976 103.233 115.252 103.434C115.654 103.73 116.178 103.878 116.824 103.878C117.279 103.878 117.655 103.762 117.951 103.529C118.248 103.296 118.454 102.936 118.571 102.449C118.698 101.952 118.761 100.581 118.761 98.3363V86.8232C118.761 85.7222 118.698 85.034 118.571 84.7588C118.454 84.4835 118.216 84.2453 117.856 84.0442C117.507 83.8324 117.03 83.7266 116.427 83.7266H115.522Z" fill="#180F5E"></path><path d="M140.692 98.5427H133.085L132.18 100.639C131.883 101.338 131.735 101.915 131.735 102.37C131.735 102.973 131.979 103.418 132.466 103.704C132.751 103.873 133.455 104 134.578 104.085V104.672H127.416V104.085C128.189 103.968 128.824 103.651 129.321 103.132C129.819 102.603 130.433 101.518 131.163 99.8767L138.865 82.6944H139.167L146.932 100.353C147.673 102.026 148.282 103.079 148.759 103.513C149.119 103.841 149.627 104.032 150.283 104.085V104.672H139.866V104.085H140.295C141.131 104.085 141.718 103.968 142.057 103.736C142.29 103.566 142.407 103.323 142.407 103.005C142.407 102.814 142.375 102.619 142.311 102.417C142.29 102.322 142.131 101.925 141.835 101.226L140.692 98.5427ZM140.152 97.3676L136.944 89.9516L133.641 97.3676H140.152Z" fill="#180F5E"></path><path d="M165.941 82.6467L166.116 89.8245H165.465C165.157 88.0248 164.401 86.5797 163.194 85.4893C161.997 84.3882 160.7 83.8377 159.303 83.8377C158.223 83.8377 157.366 84.1289 156.73 84.7111C156.106 85.2828 155.794 85.9445 155.794 86.6962C155.794 87.1726 155.905 87.596 156.127 87.9666C156.434 88.4641 156.926 88.9564 157.604 89.4434C158.101 89.7928 159.25 90.4121 161.05 91.3014C163.569 92.54 165.269 93.7099 166.147 94.8109C167.015 95.9119 167.45 97.1717 167.45 98.5904C167.45 100.39 166.746 101.941 165.337 103.243C163.94 104.535 162.161 105.181 160.002 105.181C159.324 105.181 158.684 105.112 158.08 104.974C157.477 104.837 156.72 104.577 155.809 104.196C155.301 103.984 154.883 103.878 154.555 103.878C154.28 103.878 153.988 103.984 153.681 104.196C153.374 104.408 153.126 104.731 152.935 105.165H152.348V97.0341H152.935C153.401 99.3209 154.295 101.068 155.619 102.275C156.953 103.471 158.387 104.069 159.922 104.069C161.108 104.069 162.05 103.746 162.749 103.1C163.458 102.455 163.813 101.703 163.813 100.845C163.813 100.337 163.675 99.8449 163.4 99.3685C163.135 98.8921 162.728 98.4422 162.177 98.0187C161.627 97.5846 160.653 97.0235 159.255 96.3354C157.297 95.372 155.889 94.5515 155.031 93.874C154.174 93.1964 153.512 92.4395 153.046 91.6031C152.591 90.7668 152.363 89.8457 152.363 88.84C152.363 87.1249 152.993 85.664 154.253 84.4571C155.513 83.2502 157.101 82.6467 159.017 82.6467C159.716 82.6467 160.393 82.7314 161.05 82.9008C161.547 83.0278 162.151 83.2661 162.86 83.6154C163.58 83.9542 164.083 84.1236 164.369 84.1236C164.644 84.1236 164.861 84.0389 165.02 83.8695C165.179 83.7001 165.327 83.2925 165.465 82.6467H165.941Z" fill="#180F5E"></path><path d="M80.8066 119.973L83.9933 112.231H88.7733V112.552H88.3923C88.0459 112.552 87.7688 112.612 87.561 112.733C87.4167 112.814 87.3012 112.95 87.2146 113.14C87.1511 113.279 87.1193 113.64 87.1193 114.223V121.964C87.1193 122.565 87.1511 122.94 87.2146 123.09C87.2781 123.24 87.408 123.373 87.6043 123.488C87.8005 123.598 88.0632 123.653 88.3923 123.653H88.7733V123.973H82.6424V123.653H83.0234C83.3698 123.653 83.6469 123.592 83.8547 123.471C83.9991 123.39 84.1145 123.252 84.2011 123.055C84.2646 122.917 84.2964 122.553 84.2964 121.964V113.262L79.7935 123.973H79.5857L75.0135 113.34V121.609C75.0135 122.187 75.0279 122.542 75.0568 122.674C75.1318 122.963 75.2935 123.2 75.5417 123.384C75.7957 123.563 76.1912 123.653 76.7281 123.653V123.973H72.7101V123.653H72.8313C73.0911 123.659 73.3336 123.618 73.5587 123.532C73.7839 123.439 73.9542 123.318 74.0696 123.168C74.1851 123.018 74.2746 122.807 74.3381 122.536C74.3496 122.472 74.3554 122.178 74.3554 121.653V114.223C74.3554 113.628 74.3236 113.259 74.2601 113.114C74.1966 112.964 74.0667 112.834 73.8705 112.725C73.6742 112.609 73.4115 112.552 73.0825 112.552H72.7101V112.231H77.5074L80.8066 119.973Z" fill="#180F5E"></path><path d="M96.4802 120.631H92.3323L91.8387 121.774C91.6771 122.155 91.5963 122.469 91.5963 122.718C91.5963 123.047 91.729 123.289 91.9946 123.445C92.1505 123.537 92.5344 123.607 93.1463 123.653V123.973H89.2409V123.653C89.6623 123.589 90.0087 123.416 90.28 123.133C90.5514 122.845 90.8862 122.253 91.2845 121.358L95.4843 111.989H95.6489L99.8833 121.618C100.287 122.53 100.619 123.104 100.879 123.341C101.075 123.52 101.353 123.624 101.71 123.653V123.973H96.0299V123.653H96.2637C96.7197 123.653 97.0401 123.589 97.2249 123.462C97.3519 123.37 97.4154 123.237 97.4154 123.064C97.4154 122.96 97.3981 122.853 97.3634 122.744C97.3519 122.692 97.2653 122.475 97.1036 122.094L96.4802 120.631ZM96.1857 119.99L94.4365 115.946L92.6354 119.99H96.1857Z" fill="#180F5E"></path><path d="M106.629 118.622V121.912C106.629 122.547 106.667 122.949 106.742 123.116C106.822 123.278 106.961 123.408 107.157 123.506C107.353 123.604 107.72 123.653 108.257 123.653V123.973H102.247V123.653C102.79 123.653 103.157 123.604 103.347 123.506C103.543 123.402 103.679 123.269 103.754 123.107C103.835 122.946 103.875 122.547 103.875 121.912V114.292C103.875 113.657 103.835 113.259 103.754 113.097C103.679 112.93 103.543 112.797 103.347 112.699C103.151 112.601 102.784 112.552 102.247 112.552V112.231H107.703C109.123 112.231 110.162 112.329 110.82 112.526C111.478 112.722 112.015 113.086 112.431 113.617C112.846 114.142 113.054 114.76 113.054 115.47C113.054 116.336 112.743 117.052 112.119 117.617C111.721 117.975 111.164 118.244 110.448 118.423L113.271 122.397C113.64 122.911 113.903 123.232 114.059 123.359C114.295 123.537 114.57 123.636 114.881 123.653V123.973H111.184L107.4 118.622H106.629ZM106.629 112.863V118.007H107.123C107.925 118.007 108.525 117.935 108.924 117.791C109.322 117.64 109.634 117.375 109.859 116.994C110.09 116.607 110.205 116.105 110.205 115.487C110.205 114.592 109.995 113.931 109.573 113.504C109.158 113.077 108.485 112.863 107.556 112.863H106.629Z" fill="#180F5E"></path><path d="M121.229 123.653V123.973H115.089V123.653H115.479C115.819 123.653 116.094 123.592 116.302 123.471C116.452 123.39 116.567 123.252 116.648 123.055C116.711 122.917 116.743 122.553 116.743 121.964V114.24C116.743 113.64 116.711 113.265 116.648 113.114C116.584 112.964 116.455 112.834 116.258 112.725C116.068 112.609 115.808 112.552 115.479 112.552H115.089V112.231H121.229V112.552H120.839C120.498 112.552 120.224 112.612 120.016 112.733C119.866 112.814 119.748 112.953 119.661 113.149C119.598 113.288 119.566 113.651 119.566 114.24V121.964C119.566 122.565 119.598 122.94 119.661 123.09C119.731 123.24 119.861 123.373 120.051 123.488C120.247 123.598 120.51 123.653 120.839 123.653H121.229Z" fill="#180F5E"></path><path d="M132.832 112.231V115.409H132.521C132.336 114.676 132.131 114.151 131.906 113.833C131.681 113.51 131.372 113.253 130.979 113.062C130.76 112.959 130.376 112.907 129.828 112.907H128.953V121.964C128.953 122.565 128.985 122.94 129.048 123.09C129.117 123.24 129.247 123.373 129.438 123.488C129.634 123.598 129.9 123.653 130.235 123.653H130.624V123.973H124.476V123.653H124.866C125.206 123.653 125.48 123.592 125.688 123.471C125.838 123.39 125.957 123.252 126.043 123.055C126.107 122.917 126.139 122.553 126.139 121.964V112.907H125.29C124.499 112.907 123.925 113.074 123.567 113.409C123.065 113.876 122.747 114.543 122.614 115.409H122.285V112.231H132.832Z" fill="#180F5E"></path><path d="M139.968 123.653V123.973H133.828V123.653H134.218C134.558 123.653 134.833 123.592 135.04 123.471C135.191 123.39 135.306 123.252 135.387 123.055C135.45 122.917 135.482 122.553 135.482 121.964V114.24C135.482 113.64 135.45 113.265 135.387 113.114C135.323 112.964 135.193 112.834 134.997 112.725C134.807 112.609 134.547 112.552 134.218 112.552H133.828V112.231H139.968V112.552H139.578C139.237 112.552 138.963 112.612 138.755 112.733C138.605 112.814 138.487 112.953 138.4 113.149C138.337 113.288 138.305 113.651 138.305 114.24V121.964C138.305 122.565 138.337 122.94 138.4 123.09C138.47 123.24 138.599 123.373 138.79 123.488C138.986 123.598 139.249 123.653 139.578 123.653H139.968Z" fill="#180F5E"></path><path d="M148.835 119.973L152.022 112.231H156.802V112.552H156.421C156.074 112.552 155.797 112.612 155.589 112.733C155.445 112.814 155.329 112.95 155.243 113.14C155.179 113.279 155.148 113.64 155.148 114.223V121.964C155.148 122.565 155.179 122.94 155.243 123.09C155.306 123.24 155.436 123.373 155.633 123.488C155.829 123.598 156.091 123.653 156.421 123.653H156.802V123.973H150.671V123.653H151.052C151.398 123.653 151.675 123.592 151.883 123.471C152.027 123.39 152.143 123.252 152.229 123.055C152.293 122.917 152.325 122.553 152.325 121.964V113.262L147.822 123.973H147.614L143.042 113.34V121.609C143.042 122.187 143.056 122.542 143.085 122.674C143.16 122.963 143.322 123.2 143.57 123.384C143.824 123.563 144.219 123.653 144.756 123.653V123.973H140.738V123.653H140.86C141.119 123.659 141.362 123.618 141.587 123.532C141.812 123.439 141.982 123.318 142.098 123.168C142.213 123.018 142.303 122.807 142.366 122.536C142.378 122.472 142.384 122.178 142.384 121.653V114.223C142.384 113.628 142.352 113.259 142.288 113.114C142.225 112.964 142.095 112.834 141.899 112.725C141.702 112.609 141.44 112.552 141.111 112.552H140.738V112.231H145.536L148.835 119.973Z" fill="#180F5E"></path><path d="M161.963 112.907V117.687H162.196C162.941 117.687 163.481 117.453 163.816 116.985C164.151 116.518 164.364 115.828 164.456 114.916H164.786V121.064H164.456C164.387 120.394 164.24 119.846 164.015 119.418C163.795 118.991 163.539 118.706 163.244 118.561C162.95 118.411 162.523 118.336 161.963 118.336V121.644C161.963 122.291 161.989 122.686 162.04 122.83C162.098 122.975 162.202 123.093 162.352 123.185C162.502 123.278 162.745 123.324 163.08 123.324H163.781C164.878 123.324 165.755 123.07 166.413 122.562C167.077 122.054 167.554 121.28 167.842 120.241H168.163L167.634 123.973H157.486V123.653H157.875C158.216 123.653 158.49 123.592 158.698 123.471C158.848 123.39 158.964 123.252 159.044 123.055C159.108 122.917 159.14 122.553 159.14 121.964V114.24C159.14 113.709 159.125 113.383 159.096 113.262C159.039 113.06 158.932 112.904 158.776 112.794C158.557 112.632 158.256 112.552 157.875 112.552H157.486V112.231H167.314V115.704H166.985C166.818 114.855 166.581 114.246 166.275 113.876C165.975 113.507 165.548 113.236 164.993 113.062C164.67 112.959 164.064 112.907 163.175 112.907H161.963Z" fill="#180F5E"></path><path d="M76.9479 137.165V140.421C76.9479 141.056 76.9855 141.457 77.0605 141.624C77.1413 141.786 77.2799 141.916 77.4762 142.014C77.6782 142.112 78.0448 142.161 78.5759 142.161V142.482H72.6096V142.161C73.1522 142.161 73.5188 142.112 73.7093 142.014C73.9056 141.91 74.0413 141.777 74.1163 141.616C74.1971 141.454 74.2375 141.056 74.2375 140.421V132.801C74.2375 132.166 74.1971 131.767 74.1163 131.606C74.0413 131.438 73.9056 131.305 73.7093 131.207C73.513 131.109 73.1465 131.06 72.6096 131.06V130.74H77.7273C79.413 130.74 80.6224 131.04 81.3556 131.64C82.0887 132.241 82.4553 132.991 82.4553 133.892C82.4553 134.654 82.2186 135.306 81.7453 135.849C81.2719 136.391 80.6195 136.761 79.7882 136.957C79.2283 137.096 78.2815 137.165 76.9479 137.165ZM76.9479 131.415V136.489C77.1385 136.501 77.2828 136.507 77.3809 136.507C78.0852 136.507 78.6279 136.299 79.0089 135.883C79.3899 135.462 79.5804 134.812 79.5804 133.935C79.5804 133.063 79.3899 132.425 79.0089 132.021C78.6279 131.617 78.0592 131.415 77.303 131.415H76.9479Z" fill="#180F5E"></path><path d="M95.6263 130.74V131.06C95.1991 131.129 94.8181 131.357 94.4832 131.744C94.2408 132.033 93.88 132.711 93.4008 133.779L89.3569 142.75H89.0711L85.0445 133.415C84.5596 132.29 84.2334 131.629 84.066 131.432C83.9043 131.236 83.5955 131.112 83.1394 131.06V130.74H88.768V131.06H88.5775C88.0695 131.06 87.7231 131.124 87.5384 131.251C87.4056 131.337 87.3392 131.464 87.3392 131.632C87.3392 131.735 87.3623 131.86 87.4085 132.004C87.4547 132.142 87.6106 132.521 87.8761 133.138L90.3787 138.983L92.6994 133.779C92.9765 133.15 93.1468 132.728 93.2103 132.515C93.2738 132.301 93.3056 132.119 93.3056 131.969C93.3056 131.796 93.2594 131.643 93.167 131.51C93.0746 131.378 92.939 131.277 92.76 131.207C92.5118 131.109 92.1827 131.06 91.7728 131.06V130.74H95.6263Z" fill="#180F5E"></path><path d="M107.005 130.74V133.918H106.693C106.508 133.184 106.303 132.659 106.078 132.342C105.853 132.018 105.544 131.761 105.152 131.571C104.932 131.467 104.548 131.415 104 131.415H103.125V140.473C103.125 141.073 103.157 141.448 103.221 141.599C103.29 141.749 103.42 141.881 103.61 141.997C103.807 142.107 104.072 142.161 104.407 142.161H104.797V142.482H98.6484V142.161H99.0381C99.3787 142.161 99.6529 142.101 99.8607 141.98C100.011 141.899 100.129 141.76 100.216 141.564C100.279 141.425 100.311 141.062 100.311 140.473V131.415H99.4624C98.6715 131.415 98.0971 131.582 97.7392 131.917C97.2369 132.385 96.9194 133.052 96.7866 133.918H96.4576V130.74H107.005Z" fill="#180F5E"></path><path d="M108.546 139.815C108.95 139.815 109.291 139.956 109.568 140.239C109.851 140.522 109.992 140.862 109.992 141.261C109.992 141.659 109.851 142 109.568 142.283C109.285 142.56 108.944 142.698 108.546 142.698C108.148 142.698 107.807 142.56 107.524 142.283C107.247 142 107.109 141.659 107.109 141.261C107.109 140.862 107.247 140.522 107.524 140.239C107.807 139.956 108.148 139.815 108.546 139.815Z" fill="#180F5E"></path><path d="M121.96 138.36L121.518 142.482H111.092V142.161H111.482C111.822 142.161 112.096 142.101 112.304 141.98C112.454 141.899 112.57 141.76 112.651 141.564C112.714 141.425 112.746 141.062 112.746 140.473V132.749C112.746 132.148 112.714 131.773 112.651 131.623C112.587 131.473 112.457 131.343 112.261 131.233C112.07 131.118 111.811 131.06 111.482 131.06H111.092V130.74H117.353V131.06H116.842C116.501 131.06 116.227 131.121 116.019 131.242C115.869 131.323 115.751 131.461 115.664 131.658C115.601 131.796 115.569 132.16 115.569 132.749V140.23C115.569 140.831 115.604 141.215 115.673 141.382C115.742 141.544 115.878 141.665 116.08 141.746C116.224 141.798 116.573 141.824 117.128 141.824H118.106C118.73 141.824 119.249 141.714 119.665 141.495C120.08 141.275 120.438 140.929 120.739 140.455C121.045 139.982 121.333 139.284 121.604 138.36H121.96Z" fill="#180F5E"></path><path d="M132.152 130.74V133.918H131.84C131.655 133.184 131.45 132.659 131.225 132.342C131 132.018 130.691 131.761 130.299 131.571C130.079 131.467 129.695 131.415 129.147 131.415H128.272V140.473C128.272 141.073 128.304 141.448 128.367 141.599C128.437 141.749 128.567 141.881 128.757 141.997C128.953 142.107 129.219 142.161 129.554 142.161H129.943V142.482H123.795V142.161H124.185C124.526 142.161 124.8 142.101 125.008 141.98C125.158 141.899 125.276 141.76 125.363 141.564C125.426 141.425 125.458 141.062 125.458 140.473V131.415H124.609C123.818 131.415 123.244 131.582 122.886 131.917C122.384 132.385 122.066 133.052 121.934 133.918H121.604V130.74H132.152Z" fill="#180F5E"></path><path d="M133.026 142.482V142.161H133.416C133.757 142.161 134.016 142.109 134.195 142.005C134.38 141.896 134.516 141.749 134.602 141.564C134.654 141.443 134.68 141.079 134.68 140.473V132.749C134.68 132.148 134.648 131.773 134.585 131.623C134.521 131.473 134.392 131.343 134.195 131.233C134.005 131.118 133.745 131.06 133.416 131.06H133.026V130.74H138.282C139.685 130.74 140.814 130.93 141.668 131.311C142.713 131.779 143.504 132.486 144.041 133.433C144.584 134.379 144.855 135.45 144.855 136.645C144.855 137.471 144.722 138.233 144.457 138.931C144.191 139.624 143.848 140.199 143.426 140.655C143.005 141.105 142.517 141.469 141.963 141.746C141.414 142.017 140.742 142.228 139.945 142.378C139.593 142.447 139.039 142.482 138.282 142.482H133.026ZM137.503 131.406V140.568C137.503 141.053 137.526 141.35 137.572 141.46C137.619 141.57 137.697 141.653 137.806 141.711C137.962 141.798 138.187 141.841 138.482 141.841C139.446 141.841 140.182 141.512 140.69 140.854C141.383 139.965 141.729 138.585 141.729 136.715C141.729 135.208 141.492 134.004 141.019 133.104C140.644 132.399 140.162 131.92 139.573 131.666C139.157 131.487 138.467 131.401 137.503 131.406Z" fill="#180F5E"></path><path d="M147.825 139.815C148.229 139.815 148.57 139.956 148.847 140.239C149.13 140.522 149.271 140.862 149.271 141.261C149.271 141.659 149.13 142 148.847 142.283C148.564 142.56 148.223 142.698 147.825 142.698C147.427 142.698 147.086 142.56 146.803 142.283C146.526 142 146.388 141.659 146.388 141.261C146.388 140.862 146.526 140.522 146.803 140.239C147.086 139.956 147.427 139.815 147.825 139.815Z" fill="#180F5E"></path></svg>